<?xml version="1.0" encoding="utf-8"?>
<!-- Generator: Adobe Illustrator 18.0.0, SVG Export Plug-In . SVG Version: 6.00 Build 0)  -->
<!DOCTYPE svg PUBLIC "-//W3C//DTD SVG 1.1//EN" "http://www.w3.org/Graphics/SVG/1.1/DTD/svg11.dtd">
<svg version="1.1" id="Layer_1" xmlns="http://www.w3.org/2000/svg" xmlns:xlink="http://www.w3.org/1999/xlink" x="0px" y="0px"
	 viewBox="0 0 792 612" enable-background="new 0 0 792 612" xml:space="preserve">
<path d="M305,260.4c0,7.6-6.2,13.8-13.8,13.8h-13.8c-7.6,0-13.8-6.2-13.8-13.8V210c0-7.6,6.2-13.8,13.8-13.8h13.8
	c7.6,0,13.8,6.2,13.8,13.8V260.4z"/>
<path d="M302.7,494.2c0,7.6-6.2,13.8-13.8,13.8h-13.8c-7.6,0-13.8-6.2-13.8-13.8v-50.4c0-7.6,6.2-13.8,13.8-13.8H289
	c7.6,0,13.8,6.2,13.8,13.8V494.2z"/>
<path d="M533.1,494.2c0,7.6-6.2,13.8-13.8,13.8h-13.8c-7.6,0-13.8-6.2-13.8-13.8v-50.4c0-7.6,6.2-13.8,13.8-13.8h13.8
	c7.6,0,13.8,6.2,13.8,13.8V494.2z"/>
<path d="M533.1,260.4c0,7.6-6.2,13.8-13.8,13.8h-13.8c-7.6,0-13.8-6.2-13.8-13.8V210c0-7.6,6.2-13.8,13.8-13.8h13.8
	c7.6,0,13.8,6.2,13.8,13.8V260.4z"/>
<line fill="none" stroke="#F9F9F9" stroke-width="10" stroke-miterlimit="10" x1="365.9" y1="548.5" x2="366.2" y2="580.1"/>
<line fill="none" stroke="#F9F9F9" stroke-width="10" stroke-miterlimit="10" x1="419.7" y1="548.5" x2="420.1" y2="580.1"/>
<path id="XMLID_7_" fill="#70050F" d="M552.5,536.6l-41.3-14.9v-32.1v-72.7c-25.9-58.9,0-129,0-129v-95.6
	c-6-6.2-13.1-11.7-20.5-16.6c-3.3-10.2-7.6-19.7-12.4-28.4l12.9-6.3c12.9-6.3,14.2-24.3,2.3-32.3l-37.5-25.3L418.7,58
	c-4.5-3-9.5-3.8-14.2-2.9l-0.9-1.5l-13.9-21.8l-11.9,22.8v0.1c-4.1-0.5-8.5,0.5-12.4,3.1l-37.5,25.3l-37.5,25.3
	c-11.9,8-10.7,26,2.3,32.3l19.8,9.6c-4.2,8-7.9,16.6-10.8,25.8c-7.1,4.8-13.8,10.1-19.5,15.9v95.7c0,0,25.9,70.1,0,129v72.7v32.1
	L249.1,532l-41.3,48.1H586L552.5,536.6z"/>
<path id="XMLID_6_" fill="#457A89" d="M476.1,227.2c-0.5-22.5-36.3-40.6-80.6-40.6c-44.1,0-80,18.1-80.6,40.6h-0.8v22.3
	c0,11.1,8.9,20.1,20.1,20.1h122.6c11.1,0,20.1-8.9,20.1-20.1v-22.3H476.1z"/>
</svg>
