<?xml version="1.0" encoding="utf-8"?>
<!-- Generator: Adobe Illustrator 18.0.0, SVG Export Plug-In . SVG Version: 6.00 Build 0)  -->
<!DOCTYPE svg PUBLIC "-//W3C//DTD SVG 1.1//EN" "http://www.w3.org/Graphics/SVG/1.1/DTD/svg11.dtd">
<svg version="1.1" id="Layer_1" xmlns="http://www.w3.org/2000/svg" xmlns:xlink="http://www.w3.org/1999/xlink" x="0px" y="0px"
	 viewBox="0 0 792 612" enable-background="new 0 0 792 612" xml:space="preserve">
<g id="XMLID_3_">
	<path id="XMLID_1_" fill="#020000" stroke="#000000" stroke-miterlimit="10" d="M671.9,452.7H413.6c-10.2,0-18.4-8.2-18.4-18.4
		v-2.5c0-10.2,8.2-18.4,18.4-18.4h258.3c10.2,0,18.4,8.2,18.4,18.4v2.5C690.3,444.4,682.1,452.7,671.9,452.7z"/>
	<polygon id="XMLID_2_" fill="#E8D807" points="413.6,414.5 503.4,453.9 542.8,453.9 460.4,414.5 	"/>
	<polygon id="XMLID_4_" fill="#E8D807" points="542.8,414.5 632.5,453.9 671.9,453.9 589.5,414.5 	"/>
</g>
<g id="XMLID_6_">
	<path id="XMLID_9_" fill="#020000" stroke="#000000" stroke-miterlimit="10" d="M323.8,453.9H65.6c-10.2,0-18.4-8.2-18.4-18.4V433
		c0-10.2,8.2-18.4,18.4-18.4h258.3c10.2,0,18.4,8.2,18.4,18.4v2.5C342.3,445.6,334.1,453.9,323.8,453.9z"/>
	<polygon id="XMLID_8_" fill="#E8D807" points="65.6,415.8 155.3,455.1 194.7,455.1 112.3,415.8 	"/>
	<polygon id="XMLID_7_" fill="#E8D807" points="194.7,415.8 284.5,455.1 323.8,455.1 241.4,415.8 	"/>
</g>
<circle id="XMLID_5_" fill="#020200" stroke="#4C4C48" stroke-width="8" stroke-miterlimit="10" cx="367.7" cy="187.7" r="124.9"/>
<circle id="XMLID_11_" fill="#474745" cx="188.6" cy="187.7" r="124.9"/>
<circle id="XMLID_19_" fill="none" stroke="#232322" stroke-width="4" stroke-miterlimit="10" cx="188.1" cy="188.1" r="103.2"/>
<g id="XMLID_14_">
	<rect id="XMLID_12_" x="607.3" y="119.4" fill="#474745" stroke="#020200" stroke-miterlimit="10" width="5.5" height="190.6"/>
	<rect id="XMLID_13_" x="580.9" y="62.8" fill="#9B9B9A" stroke="#020200" stroke-miterlimit="10" width="55.3" height="56.6"/>
</g>
<g id="XMLID_16_">
	
		<rect id="XMLID_18_" x="678.6" y="153.6" transform="matrix(-0.9288 -0.3707 0.3707 -0.9288 1221.9009 732.6223)" fill="#474745" stroke="#020200" stroke-miterlimit="10" width="5.5" height="190.6"/>
	
		<rect id="XMLID_17_" x="698" y="105.2" transform="matrix(-0.9288 -0.3707 0.3707 -0.9288 1350.2 526.5024)" fill="#9B9B9A" stroke="#020200" stroke-miterlimit="10" width="55.3" height="56.6"/>
</g>
</svg>
