<?xml version="1.0" encoding="utf-8"?>
<!-- Generator: Adobe Illustrator 18.0.0, SVG Export Plug-In . SVG Version: 6.00 Build 0)  -->
<!DOCTYPE svg PUBLIC "-//W3C//DTD SVG 1.1//EN" "http://www.w3.org/Graphics/SVG/1.1/DTD/svg11.dtd">
<svg version="1.1" id="Layer_1" xmlns="http://www.w3.org/2000/svg" xmlns:xlink="http://www.w3.org/1999/xlink" x="0px" y="0px"
	 viewBox="0 0 792 612" enable-background="new 0 0 792 612" xml:space="preserve">
<path id="XMLID_2_" fill="#07051C" stroke="#000000" stroke-miterlimit="10" d="M332.3,33.8c136,50.6,158.2,0,158.2,101.2
	s136,85.4,136,85.4s28.5-9.5,38,20.6c0,0,9.5,123.4-55.4,123.4s-117.1,74.3-117.1,74.3S383,540,313.4,476.8s-205.6-125-143.9-180.3
	s56.9-72.8,36.4-104.4s-52.2-47.5-30.1-72.8s45.9-49,56.9-60.1s47.5,1.6,34.8-17.4C254.8,22.8,332.3,33.8,332.3,33.8z"/>
<polygon id="XMLID_5_" fill="#020000" stroke="#F9F9F9" stroke-miterlimit="10" points="445.9,363 440.2,346.6 420.9,353.4 
	426.6,369.8 332.5,402.6 350.8,455.6 368.6,506.3 391.2,571.4 516.6,527.7 495.1,465.7 475.8,410.5 457.9,358.9 "/>
<text id="XMLID_3_" transform="matrix(0.9444 -0.3287 0.3287 0.9444 390.5718 485.3417)" fill="#FCFCFC" font-family="'ArialMT'" font-size="30.0541">ÓLEO</text>
<rect id="XMLID_4_" x="367.4" y="489.6" transform="matrix(-0.9444 0.3287 -0.3287 -0.9444 1005.2792 813.9632)" fill="#F9F9F9" width="132.9" height="4.7"/>
<rect id="XMLID_7_" x="345.9" y="427.7" transform="matrix(-0.9444 0.3287 -0.3287 -0.9444 943.1984 700.7014)" fill="#F9F9F9" width="132.9" height="4.7"/>
<path id="XMLID_8_" fill="none" stroke="#F9F9F9" stroke-miterlimit="10" d="M440.2,346.6c13.9-54.9-6.3-66-6.3-66"/>
<path id="XMLID_9_" fill="none" stroke="#F9F9F9" stroke-miterlimit="10" d="M426,346.6c13.9-54.9-6.3-66-6.3-66"/>
</svg>
