<?xml version="1.0" encoding="UTF-8"?>
<!DOCTYPE svg PUBLIC "-//W3C//DTD SVG 1.1//EN" "http://www.w3.org/Graphics/SVG/1.1/DTD/svg11.dtd">
<!-- Creator: CorelDRAW X7.3 EN Portable -->
<svg xmlns="http://www.w3.org/2000/svg" xml:space="preserve" width="297mm" height="210mm" version="1.1" style="shape-rendering:geometricPrecision; text-rendering:geometricPrecision; image-rendering:optimizeQuality; fill-rule:evenodd; clip-rule:evenodd"
viewBox="0 0 29700 21000"
 xmlns:xlink="http://www.w3.org/1999/xlink">
 <defs>
  <style type="text/css">
   <![CDATA[
    .fil2 {fill:#FFFEFA}
    .fil3 {fill:#FFD457}
    .fil4 {fill:#F9A95B}
    .fil7 {fill:#F05B3B}
    .fil5 {fill:#C64939}
    .fil6 {fill:#AB3D37}
    .fil1 {fill:#67C6B8}
    .fil0 {fill:#334558}
    .fil8 {fill:#FEFEFE;fill-rule:nonzero}
   ]]>
  </style>
 </defs>
 <g id="Layer_x0020_1">
  <metadata id="CorelCorpID_0Corel-Layer"/>
  <polygon class="fil0" points="17097,3340 18282,4525 19467,3340 18282,2155 "/>
  <polygon class="fil0" points="8261,5339 9446,6524 10632,5339 9446,4154 "/>
  <polygon class="fil0" points="6494,7060 7679,8246 8865,7060 7679,5875 "/>
  <polygon class="fil0" points="10028,7060 11214,8246 12399,7060 11214,5875 "/>
  <polygon class="fil0" points="13562,10781 14748,11966 15933,10781 14748,9596 "/>
  <polygon class="fil0" points="4727,12780 5912,13965 7097,12780 5912,11594 "/>
  <polygon class="fil0" points="8261,12780 9446,13965 10632,12780 9446,11594 "/>
  <polygon class="fil0" points="11796,12780 12981,13965 14166,12780 12981,11594 "/>
  <polygon class="fil0" points="15330,12780 16515,13965 17700,12780 16515,11594 "/>
  <polygon class="fil0" points="18864,12780 20049,13965 21235,12780 20049,11594 "/>
  <polygon class="fil0" points="22399,12780 23584,13965 24769,12780 23584,11594 "/>
  <polygon class="fil0" points="2959,14501 4145,15686 5330,14501 4145,13316 "/>
  <polygon class="fil0" points="24166,14501 25351,15686 26536,14501 25351,13316 "/>
  <path class="fil1" d="M15466 9569c-85,0 -154,-69 -154,-154l0 -5991c0,-85 69,-154 154,-154 85,0 153,69 153,154l0 5991c0,85 -68,154 -153,154z"/>
  <path class="fil1" d="M18461 6573l-5991 0c-85,0 -154,-69 -154,-154 0,-84 69,-153 154,-153l5991 0c85,0 154,69 154,153 0,85 -69,154 -154,154z"/>
  <path class="fil1" d="M18060 8071c-26,0 -52,-7 -77,-21l-5189 -2996c-73,-42 -98,-136 -56,-209 43,-74 137,-99 210,-57l5189 2996c73,43 99,137 56,210 -28,49 -80,77 -133,77z"/>
  <path class="fil1" d="M13968 9167c-27,0 -53,-6 -77,-20 -73,-43 -99,-137 -56,-210l2996 -5189c42,-73 136,-98 209,-56 74,42 99,136 57,210l-2996 5188c-29,50 -80,77 -133,77z"/>
  <path class="fil1" d="M16964 9167c-53,0 -105,-27 -133,-76l-2996 -5189c-43,-74 -17,-168 56,-210 73,-42 167,-17 210,56l2996 5189c42,73 17,167 -57,210 -24,14 -50,20 -76,20z"/>
  <path class="fil1" d="M12871 8071c-53,0 -104,-28 -133,-77 -42,-73 -17,-167 56,-210l5189 -2996c73,-42 167,-17 210,57 43,73 17,167 -56,210l-5189 2995c-24,14 -50,21 -77,21z"/>
  <path class="fil2" d="M17251 6419c0,986 -799,1786 -1785,1786 -987,0 -1786,-800 -1786,-1786 0,-986 799,-1786 1786,-1786 986,0 1785,800 1785,1786z"/>
  <path class="fil1" d="M15466 5210c-667,0 -1210,542 -1210,1209 0,667 542,1210 1210,1210 667,0 1209,-543 1209,-1210 0,-667 -542,-1209 -1209,-1209z"/>
  <path class="fil3" d="M15466 9415c-1655,0 -2996,-1341 -2996,-2996 0,-1654 1341,-2995 2996,-2995 1654,0 2995,1341 2995,2995 0,1655 -1341,2996 -2995,2996zm0 -8245c-2899,0 -5249,2350 -5249,5249 0,2899 2350,5249 5249,5249 2898,0 5249,-2350 5249,-5249 0,-2899 -2351,-5249 -5249,-5249z"/>
  <path class="fil4" d="M15466 9415c-1655,0 -2996,-1341 -2996,-2996 0,-1654 1341,-2995 2996,-2995 1654,0 2995,1341 2995,2995 0,1655 -1341,2996 -2995,2996zm0 -6875c-2143,0 -3879,1737 -3879,3879 0,2143 1736,3879 3879,3879 2142,0 3879,-1736 3879,-3879 0,-2142 -1737,-3879 -3879,-3879z"/>
  <path class="fil2" d="M15466 3577c-1568,0 -2842,1275 -2842,2842 0,1568 1274,2843 2842,2843 1567,0 2842,-1275 2842,-2843 0,-1567 -1275,-2842 -2842,-2842zm0 5992c-1737,0 -3150,-1413 -3150,-3150 0,-1736 1413,-3149 3150,-3149 1736,0 3149,1413 3149,3149 0,1737 -1413,3150 -3149,3150z"/>
  <path class="fil3" d="M9388 3531c-1486,492 -1498,1820 -3557,1705 0,0 618,329 1450,657 -159,118 -296,238 -405,349 0,0 0,0 0,0 -1272,1170 -2576,600 -2576,600 0,0 321,1183 880,1528 1453,897 2171,-316 3098,107 -772,495 -1376,1028 -1376,1028 1654,-477 1770,556 3080,773 1603,265 1564,-1197 1564,-1197 -28,-397 -110,-696 -234,-916 465,-697 354,-1559 0,-2126 259,-339 356,-871 203,-1669 0,0 -309,-1441 -2127,-839z"/>
  <path class="fil4" d="M9909 5580c-682,226 -687,835 -1633,783 0,0 284,151 666,302 -73,54 -136,109 -186,160l0 0c-584,537 -1182,275 -1182,275 0,0 147,543 403,702 667,412 997,-146 1423,49 -355,227 -632,472 -632,472 759,-220 813,255 1414,354 736,122 718,-549 718,-549 -12,-182 -50,-319 -107,-421 213,-320 162,-715 0,-975 119,-156 163,-401 93,-767 0,0 -142,-661 -977,-385z"/>
  <polygon class="fil5" points="5812,17269 1122,17269 2259,15037 1122,12893 5812,12893 "/>
  <polygon class="fil6" points="4008,15081 5812,17269 5812,15081 "/>
  <polygon class="fil5" points="23145,17269 27835,17269 26698,15037 27835,12893 23145,12893 "/>
  <polygon class="fil6" points="24949,15081 23145,17269 23145,15081 "/>
  <polygon class="fil7" points="24957,15081 4008,15081 4008,10704 24957,10704 "/>
  <path class="fil3" d="M6365 12267l145 294c8,17 25,30 45,32l324 48c49,7 69,67 34,102l-235 229c-14,13 -21,33 -17,52l55 324c8,48 -43,86 -87,63l-290 -153c-17,-9 -38,-9 -56,0l-290 153c-44,23 -95,-15 -87,-63l56 -324c3,-19 -4,-39 -17,-52l-235 -229c-36,-35 -16,-95 33,-102l324 -48c20,-2 37,-15 46,-32l144 -294c22,-45 86,-45 108,0z"/>
  <path class="fil3" d="M22631 12267l145 294c8,17 25,30 45,32l324 48c49,7 69,67 33,102l-234 229c-15,13 -21,33 -18,52l56 324c8,48 -43,86 -87,63l-290 -153c-18,-9 -38,-9 -56,0l-290 153c-44,23 -95,-15 -87,-63l56 -324c3,-19 -4,-39 -18,-52l-234 -229c-36,-35 -16,-95 33,-102l324 -48c20,-2 36,-15 45,-32l145 -294c22,-45 85,-45 108,0z"/>
  <polygon class="fil1" points="18798,18377 10168,18377 10168,16093 18798,16093 "/>
  <path class="fil3" d="M8945 17271c0,212 -173,385 -386,385 -212,0 -385,-173 -385,-385 0,-213 173,-386 385,-386 213,0 386,173 386,386z"/>
  <path class="fil3" d="M7207 17271c0,121 -98,219 -219,219 -121,0 -219,-98 -219,-219 0,-121 98,-219 219,-219 121,0 219,98 219,219z"/>
  <path class="fil3" d="M19865 17271c0,212 172,385 385,385 213,0 386,-173 386,-385 0,-213 -173,-386 -386,-386 -213,0 -385,173 -385,386z"/>
  <path class="fil3" d="M21603 17271c0,121 98,219 219,219 121,0 219,-98 219,-219 0,-121 -98,-219 -219,-219 -121,0 -219,98 -219,219z"/>
  <path class="fil8" d="M10304 11894l-548 1061 548 1064 -695 0 -390 -756 0 756 -615 0 0 -2125 615 0 0 756 390 -756 695 0zm1656 0l0 2125 -615 0 0 -759 -361 0 0 759 -616 0 0 -2125 616 0 0 750 361 0 0 -750 615 0zm1445 0l657 2125 -616 0 -67 -252 -642 0 -65 252 -615 0 657 -2125 691 0zm-225 1278l-121 -490 -123 490 244 0zm2700 847l-663 0c-88,-129 -161,-232 -218,-309 -58,-78 -105,-136 -141,-175 -36,-39 -63,-62 -81,-70 -17,-8 -29,-7 -36,3 -7,10 -11,24 -11,44 0,19 0,36 0,50l0 457 -615 0 0 -2125 806 0c94,0 186,22 277,67 91,45 170,102 236,170 78,78 136,167 174,267 38,99 57,201 55,305 -2,103 -24,205 -66,306 -42,101 -102,191 -181,271l464 739zm-812 -1343c0,-56 -20,-104 -59,-143 -39,-40 -87,-59 -144,-59l-140 0 0 407 140 0c57,0 105,-20 144,-60 39,-40 59,-88 59,-145zm2611 1343l-662 0c-88,-129 -161,-232 -218,-309 -58,-78 -105,-136 -141,-175 -36,-39 -63,-62 -81,-70 -17,-8 -30,-7 -36,3 -7,10 -11,24 -11,44 0,19 0,36 0,50l0 457 -615 0 0 -2125 806 0c94,0 186,22 277,67 91,45 169,102 236,170 78,78 136,167 174,267 38,99 57,201 55,305 -2,103 -24,205 -66,306 -42,101 -103,191 -181,271l463 739zm-812 -1343c0,-56 -19,-104 -58,-143 -39,-40 -87,-59 -144,-59l-141 0 0 407 141 0c57,0 105,-20 144,-60 39,-40 58,-88 58,-145zm880 -782l920 0 0 548 -152 0 0 1029 152 0 0 548 -920 0 0 -548 152 0 0 -1029 -152 0 0 -548zm2615 0l0 2125 -586 0 -420 -768 0 768 -571 0 0 -2125 583 0 369 835 0 -835 625 0z"/>
  <path class="fil8" d="M11697 17653c-58,0 -111,-11 -159,-33 -49,-21 -91,-51 -127,-88 -36,-37 -64,-82 -84,-133 -20,-52 -30,-107 -30,-167 0,-60 10,-116 30,-165 20,-50 48,-93 84,-128 36,-35 78,-62 127,-82 48,-19 101,-29 159,-29l447 0 0 144 -447 0c-37,0 -71,7 -103,20 -31,14 -58,32 -81,55 -22,24 -40,52 -53,84 -13,33 -19,69 -19,108 0,38 6,74 19,108 13,33 31,61 53,85 23,24 50,43 81,56 32,14 66,21 103,21l447 0 0 144 -447 0zm940 0c-58,0 -111,-11 -159,-33 -49,-21 -92,-51 -127,-88 -36,-37 -64,-82 -84,-133 -20,-52 -30,-107 -30,-167 0,-60 10,-116 30,-165 20,-50 48,-93 84,-128 35,-35 78,-62 127,-82 48,-19 101,-29 159,-29l201 0c59,0 114,10 163,30 50,20 92,47 128,83 35,35 63,78 83,127 19,50 29,104 29,164 0,60 -10,115 -30,167 -20,51 -48,96 -84,133 -36,37 -78,67 -127,88 -49,22 -104,33 -162,33l-201 0zm201 -144c37,0 72,-7 104,-21 32,-13 59,-32 82,-56 23,-24 41,-52 54,-85 13,-34 19,-70 19,-108 0,-39 -6,-74 -19,-107 -13,-33 -31,-61 -54,-85 -23,-23 -50,-41 -82,-55 -32,-13 -67,-20 -104,-20l-201 0c-37,0 -71,7 -103,20 -31,14 -58,32 -81,55 -22,24 -40,52 -53,84 -13,33 -19,69 -19,108 0,38 6,74 19,108 13,33 31,61 53,85 23,24 50,43 81,56 32,14 66,21 103,21l201 0zm1285 144l-208 -229 -309 0 0 -127 344 0c52,0 91,-14 118,-43 26,-28 39,-69 39,-123 0,-53 -13,-93 -41,-119 -28,-27 -66,-40 -116,-40l-449 0 0 681 -143 0 0 -825 592 0c47,0 89,7 126,21 37,14 68,34 94,61 25,26 45,57 59,94 13,37 20,79 20,125 0,69 -15,126 -45,173 -30,46 -71,80 -125,100l248 251 -204 0zm1044 0l-208 -229 -309 0 0 -127 344 0c52,0 91,-14 118,-43 26,-28 40,-69 40,-123 0,-53 -14,-93 -42,-119 -27,-27 -66,-40 -116,-40l-449 0 0 681 -143 0 0 -825 592 0c47,0 89,7 126,21 37,14 68,34 94,61 26,26 45,57 59,94 14,37 20,79 20,125 0,69 -15,126 -44,173 -30,46 -72,80 -126,100l249 251 -205 0zm287 0l0 -825 144 0 0 825 -144 0zm295 0l0 -825 477 0c59,0 112,10 161,30 50,20 92,47 127,83 36,35 64,78 84,127 20,50 30,104 30,164 0,60 -10,115 -30,167 -20,51 -48,96 -84,133 -35,37 -77,67 -127,88 -49,22 -102,33 -161,33l-477 0zm477 -144c37,0 72,-7 103,-21 31,-13 59,-32 82,-56 23,-24 41,-52 54,-85 12,-34 19,-70 19,-108 0,-39 -7,-74 -19,-107 -13,-33 -31,-61 -54,-85 -23,-23 -51,-41 -82,-55 -31,-13 -66,-20 -103,-20l-334 0 0 537 334 0zm1269 144l-123 -208 -390 0 68 -117 252 0 -183 -308 -374 633 -165 0 474 -789c8,-15 18,-26 30,-34 11,-9 24,-13 40,-13 16,0 30,4 41,13 11,8 20,19 29,34l475 789 -174 0z"/>
 </g>
</svg>
